<svg xmlns="http://www.w3.org/2000/svg" viewBox="0 0 30 30">
  <defs>
    <circle id="mode-kino-connaissance" cx="0" cy="0" r="2"/>
    <g id="mode-kino-auditif" transform="translate(-13.8 -9)"><path d="M 12.3,6.4019238 A 3,3 0 0 0 11.201924,10.5 5,5 0 0 1 12.3,2.1592831 a 3,3 0 0 0 0,4.2426407"/></g>
    <g id="mode-kino-visuel" transform="translate(-13.8 -9)"><path d="m13.8 6a3 3 0 0 1 3 3 6 6 0 0 1 8.485281 0 8 8 0 0 0-11.485281-3"/></g>
    <g id="mode-kino-kinesthesique" transform="translate(-13.8 -9)"><path d="M 12.3,11.598076 A 3,3 0 0 0 16.398076,10.5 13,13 0 0 1 12.3,28.568639 a 12,12 0 0 0 0,-16.970563"/></g>
  </defs>
  <circle cx="15" cy="15" r="15" fill="rgb(80.65928192913708%,56.38452292754677%,88.6627341872275%)"/>
  <use data-instance="connaissance-0" href="#mode-kino-connaissance" transform="matrix(1 0 0 1 13.8 9)" opacity="1" fill="#ffffff" stroke="none"/>
  <use data-instance="kinesthesique-0" href="#mode-kino-kinesthesique" transform="matrix(1 0 0 1 13.8 9)" opacity="1" fill="#ffffff" stroke="none"/>
</svg>
